<svg xmlns="http://www.w3.org/2000/svg" width="78" height="78" fill="none" viewBox="0 0 78 78">
    <g filter="url(#filter0_d)">
        <rect width="48.651" height="48.651" fill="#fff" rx="12" transform="scale(-1 1) rotate(-11.219 45.137 349.769)"/>
    </g>
    <path fill="#FFBFBF" d="M55.937 24.145c.157.06.253.24.216.402l-5.852 27.877c-.038.183-.243.317-.43.282l-28.553-5.361c-.186-.035-.322-.233-.283-.416l5.852-27.876c.038-.183.243-.317.43-.282l28.62 5.374zm-.57.617l-13.563-2.546-2.78 13.241 13.563 2.546 2.78-13.241zm-14.277-2.68l-13.562-2.547-2.78 13.242 13.562 2.546 2.78-13.241zm6.737 5.237c.171.055.28.247.237.418l-.439 2.091 2.209.415c.183.052.299.262.243.442-.056.179-.273.294-.457.242l-2.141-.402-.439 2.09c-.036.185-.242.322-.431.287-.189-.035-.324-.237-.283-.42l.44-2.091-2.142-.402c-.19-.033-.328-.232-.29-.416.04-.185.248-.319.436-.281l2.141.402.44-2.09c.034-.204.277-.348.476-.285zm-12.995-1.715c.265.076.322.492.087.639l-2.274 1.497 1.499 2.194c.104.156.051.392-.11.495-.161.103-.402.055-.506-.101l-1.499-2.194-2.271 1.486c-.159.107-.401.064-.509-.09-.107-.153-.06-.39.099-.496l2.271-1.487-1.496-2.205c-.168-.235.108-.619.393-.548.091.02.173.077.223.154l1.498 2.195 2.271-1.487c.093-.065.217-.085.324-.052zM52.44 38.7l-13.562-2.546-2.78 13.241 13.562 2.547L52.44 38.7zm-14.276-2.68l-13.563-2.546-2.78 13.241 13.563 2.546 2.78-13.241zm-5.167 3.738c.183.052.3.263.243.442-.055.18-.273.295-.456.243l-4.997-.938c-.189-.033-.327-.233-.289-.417.039-.184.247-.318.435-.28l5.064.95zm13.123 4.637c.184.053.3.263.244.442-.056.18-.273.295-.457.243l-4.996-.938c-.19-.033-.328-.233-.29-.417.04-.184.248-.318.436-.28l5.063.95zm-13.854-1.152c.183.052.299.263.243.442-.056.179-.273.294-.457.242l-4.997-.938c-.189-.033-.327-.232-.288-.416.038-.184.247-.319.435-.28l5.064.95z"/>
    <defs>
        <filter id="filter0_d" width="77.187" height="77.187" x="0" y="0" color-interpolation-filters="sRGB" filterUnits="userSpaceOnUse">
            <feFlood flood-opacity="0" result="BackgroundImageFix"/>
            <feColorMatrix in="SourceAlpha" values="0 0 0 0 0 0 0 0 0 0 0 0 0 0 0 0 0 0 127 0"/>
            <feOffset dy="4"/>
            <feGaussianBlur stdDeviation="5"/>
            <feColorMatrix values="0 0 0 0 0 0 0 0 0 0 0 0 0 0 0 0 0 0 0.05 0"/>
            <feBlend in2="BackgroundImageFix" result="effect1_dropShadow"/>
            <feBlend in="SourceGraphic" in2="effect1_dropShadow" result="shape"/>
        </filter>
    </defs>
</svg>
