<svg xmlns="http://www.w3.org/2000/svg" width="368" height="129" fill="none" viewBox="0 0 368 129">
    <g filter="url(#filter0_d)">
        <rect width="58.849" height="58.849" x="113" y="36.31" fill="#fff" rx="12" transform="rotate(14.488 113 36.31)"/>
    </g>
    <path fill="#FFBFBF" d="M153.197 63.105l-20.103-8.379-.047-.011-.095-.023-.094-.023c-.047-.012-.107.022-.107.022s-.047-.011-.059.035l-10.75 6.22c-.06.034-.06.034-.072.08l-.06.034c-.06.035-.085.127-.097.173l-5.592 20.525c-.013.047-.026.093-.003.196l-.013.047c-.013.046.022.103.069.115 0 0 .047.011.035.058.034.057.034.057.081.069 0 0 .048.011.082.07l.047.01 20.103 8.38c.048.01.048.01.095.022.047.012.094.023.201 0 0 0 .047.012.06-.034.047.011.059-.035.106-.023l10.75-6.22c.06-.034.06-.034.072-.08l.06-.035c.06-.034.085-.126.097-.172l5.58-20.48c-.032-.253-.123-.472-.346-.576zm-21.049-6.938l-2.161 7.933-6.737-2.785 8.898-5.148zm-9.643 5.851l7.23 3.005-2.815 10.332-9.555 5.528 5.14-18.865zm13.81 27.6l-18.645-7.824 9.675-5.597 11.332 4.75-2.362 8.67zm2.626-9.64l-11.062-4.634 2.702-9.917 11.062 4.634-2.702 9.917zm3.378-10.735l-11.427-4.773 2.362-8.67 18.739 7.846-9.674 5.597zm-4.898 20.007l2.162-7.934 6.736 2.785-8.898 5.149zm9.643-5.852l-7.23-3.004 2.79-10.24 9.555-5.528-5.115 18.772z"/>
    <g filter="url(#filter1_d)">
        <rect width="55.214" height="55.214" x="23.813" y="6.311" fill="#fff" rx="27.607" transform="rotate(14.488 23.813 6.31)"/>
    </g>
    <path fill="#FFBFBF" d="M49.41 29.24l-16.209 2.378c-1.489.218-2.499 1.584-2.25 3.045l2.709 15.898c.249 1.462 1.664 2.472 3.153 2.254l16.208-2.378c1.49-.218 2.5-1.584 2.25-3.046l-2.708-15.897c-.25-1.462-1.664-2.472-3.153-2.254zm4.78 18.31c.15.876-.456 1.696-1.35 1.827l-13.507 1.981-.722-4.239c-.249-1.462.761-2.827 2.25-3.046l3.242-.475c2.085-.306 3.498-2.219 3.15-4.264l-.414-2.43 2.706 1.934c.124.088.271.12.41.1.138-.021.267-.093.356-.212.175-.237.118-.573-.128-.749L46.4 35.273c-.246-.176-.589-.126-.764.112l-2.7 3.655c-.176.238-.119.574.127.75.246.175.589.125.764-.113l1.931-2.615.414 2.43c.25 1.462-.76 2.827-2.25 3.046l-3.241.475c-2.086.306-3.499 2.219-3.15 4.265l.722 4.239-1.621.238c-.894.13-1.742-.476-1.892-1.352l-2.708-15.898c-.15-.877.456-1.697 1.35-1.828L49.591 30.3c.893-.131 1.742.476 1.891 1.352l2.709 15.898z"/>
    <path fill="#FFBFBF" d="M36.985 34.389c-1.49.218-2.5 1.584-2.25 3.046.249 1.461 1.663 2.471 3.152 2.253 1.49-.218 2.5-1.584 2.25-3.046-.248-1.461-1.663-2.472-3.152-2.253zm.722 4.24c-.894.13-1.742-.476-1.892-1.353-.15-.876.457-1.696 1.35-1.827.894-.131 1.743.475 1.892 1.352.15.876-.457 1.696-1.35 1.827zM50.169 44.419c-.246-.176-.589-.126-.764.112l-1.033 1.397-1.445-1.032c-.246-.176-.588-.126-.764.111-.175.238-.118.574.128.75l1.445 1.033-1.031 1.396c-.176.238-.119.574.127.75.123.088.27.12.408.1.139-.021.268-.093.356-.212l1.032-1.396 1.445 1.033c.123.087.27.119.409.099.138-.02.268-.093.356-.211.176-.238.118-.574-.127-.75l-1.447-1.033 1.031-1.397c.177-.238.12-.573-.126-.75z"/>
    <g filter="url(#filter2_d)">
        <rect width="60.078" height="60.078" x="299" y="6.311" fill="#fff" rx="30.039" transform="rotate(14.488 299 6.31)"/>
    </g>
    <path fill="#FFBFBF" d="M335.708 41.427c.06-.804-.066-1.611-.369-2.363-1.689-4.623-6.162-4.569-7.746-4.39-.427-.696-1.534-1.807-4.37-2.484-2.896-.69-4.762.465-5.617 1.47-1.697-.643-3.539-.841-5.34-.574-3.008.414-4.097 2.897-4.423 3.92-2.093.495-5.31 2.281-4.875 6.23.262 2.382 1.181 4.155 2.731 5.276 1.247.85 2.743 1.292 4.269 1.264.224 0 .41-.01.581-.022.082.262.187.517.312.762 1.779 3.437 6.06 2.961 7.658 2.647.403.725 1.412 1.847 3.905 2.44.666.158 1.349.238 2.035.238.91.008 1.813-.15 2.663-.467 1.204.593 2.527.929 3.877.984.519.006 1.035-.073 1.526-.235.528-.184 1.007-.48 1.402-.865.395-.386.696-.85.882-1.363.222-.539.372-1.102.448-1.678.78-.114 2.804-.757 3.55-4.333.661-3.15-1.543-5.462-3.099-6.457zm1.762 6.196c-.516 2.462-1.657 3.087-2.199 3.247-.084-.775-.353-1.52-.786-2.177-.584-.81-1.357-1.476-2.258-1.941-.901-.466-1.904-.719-2.925-.738-.181-.009-.359.052-.493.17-.135.117-.215.282-.224.456-.009.175.054.347.176.477.121.13.291.207.472.216.805.009 1.596.201 2.309.562.714.36 1.328.879 1.794 1.512.372.6.586 1.28.622 1.978.035.699-.108 1.395-.417 2.028-.115.335-.307.642-.56.896-.254.255-.564.45-.907.574-1.142.391-2.583.01-3.544-.349.092-.08.179-.166.26-.257.335-.386.544-.86.6-1.36.057-.5-.041-1.006-.282-1.452-.038-.079-.091-.15-.157-.209-.065-.058-.143-.104-.227-.134-.084-.03-.173-.044-.263-.04-.089.003-.177.023-.259.06-.081.035-.155.087-.216.15-.06.064-.108.139-.139.22-.031.081-.045.167-.042.254.004.087.025.172.062.25.132.221.19.476.167.73-.023.254-.127.495-.297.69-.726.848-2.789 1.413-4.984.89-2.83-.672-3.132-1.985-3.141-2.023-.014-.094-.049-.183-.101-.263-.053-.08-.123-.147-.205-.198-.082-.052-.175-.085-.271-.099-.097-.014-.196-.007-.29.02-.05.013-5.011 1.359-6.661-1.83-.317-.477-.45-1.046-.373-1.608.077-.561.358-1.078.793-1.458.999-.917 2.405-1.117 2.704-.955.088.048.185.077.286.084.1.007.201-.007.295-.042.094-.035.179-.09.249-.16.069-.07.122-.155.154-.247.148-.403.378-.773.675-1.09.298-.317.657-.574 1.057-.756.837-.3 1.869-.102 3.065.586.155.087.34.111.514.067.174-.043.323-.152.415-.3.092-.15.119-.328.076-.497-.044-.168-.154-.314-.307-.404-1.571-.904-3.005-1.135-4.25-.685-.999.403-1.811 1.146-2.282 2.088-1.334-.023-2.624.462-3.59 1.35-.368.324-.664.715-.871 1.151-.208.437-.322.909-.337 1.389-1.364.1-2.723-.253-3.851-1-1.23-.89-1.965-2.354-2.183-4.35-.447-4.054 3.996-4.844 4.183-4.876.137-.022.264-.084.363-.178.099-.093.167-.214.194-.345.025-.119.639-2.926 3.393-3.306 1.713-.268 3.47-.033 5.044.675.079.043.166.07.257.081.09.01.181.003.269-.02.087-.025.169-.066.24-.12.071-.055.13-.123.173-.2.05-.086 1.238-2.103 4.455-1.337 3.217.766 3.613 2.05 3.619 2.05.016.087.051.17.102.245.051.074.117.138.194.187.077.049.163.082.254.098s.184.014.274-.006c.205-.044 5.069-1.052 6.718 3.459.387 1.06.614 2.45-.526 3.05-1.203.634-3.33.158-3.98-.65-1.088-1.35-.537-2.143-.524-2.163.058-.068.101-.146.127-.23.026-.085.034-.173.025-.26-.01-.088-.038-.172-.083-.25-.044-.076-.104-.144-.175-.198-.072-.054-.154-.094-.242-.117-.088-.023-.179-.03-.27-.018-.09.012-.177.041-.255.086-.079.044-.147.103-.202.174-.051.066-1.247 1.59.521 3.785 1.021 1.269 3.857 1.98 5.713.998.435-.231.803-.565 1.069-.97.98.727 2.736 2.408 2.217 4.883zm-15.731-8.885c-.386.585-.988 1.007-1.683 1.18-.062.017-.125.026-.189.025-.165 0-.324-.057-.449-.161-.124-.104-.206-.249-.228-.407-.023-.157.014-.318.104-.451.09-.134.227-.231.385-.275.223-.042.432-.137.608-.276.175-.14.312-.318.399-.521.076-.296.082-.605.016-.904-.066-.298-.202-.578-.398-.818-.051-.071-.087-.151-.106-.236-.019-.084-.021-.172-.005-.257.017-.085.05-.167.098-.24.049-.072.112-.135.185-.185.074-.049.157-.084.245-.102.087-.018.178-.02.266-.004.088.015.173.047.248.094.075.047.14.108.192.179.456.613.699 1.35.693 2.106 1.161.352 3.319 1.524 3.446 5.4.006.174-.06.344-.184.472-.124.127-.295.202-.476.208h-.023c-.177 0-.347-.067-.475-.186-.127-.12-.202-.282-.207-.453-.102-3.105-1.683-3.956-2.462-4.188zm4.847 11.27c.025.084.032.173.021.26-.012.087-.041.171-.086.247-.045.077-.106.143-.178.196-.073.053-.155.092-.243.114-.088.022-.18.027-.27.014-.09-.012-.176-.042-.254-.088-.078-.045-.145-.105-.199-.176-.053-.071-.092-.152-.113-.238-.064-.373-.215-.727-.441-1.037-.225-.31-.52-.566-.862-.75-.774-.277-1.625-.272-2.396.013-.054.716-.319 1.403-.763 1.979-.103.142-.26.239-.436.27-.177.031-.359-.006-.507-.103-.148-.098-.251-.248-.286-.417-.035-.17.001-.347.099-.491.199-.226.344-.49.426-.774.083-.285.101-.584.052-.875-.103-.201-.247-.38-.423-.528-.176-.147-.38-.26-.601-.33-.085-.025-.165-.067-.234-.122-.069-.056-.126-.124-.168-.2-.042-.077-.068-.16-.076-.247-.009-.086.001-.173.027-.256.026-.083.069-.16.127-.227.057-.066.127-.121.207-.162.079-.04.166-.065.255-.073.089-.009.179 0 .265.026.691.224 1.286.662 1.693 1.245 1.077-.364 2.255-.34 3.315.07.529.263.989.639 1.345 1.1.355.461.597.995.706 1.56h-.002zm-10.758-9.852c-.043.076-.102.143-.172.198-.07.054-.15.094-.236.118-.087.024-.177.032-.266.022-.089-.01-.176-.036-.254-.078-.7-.333-1.253-.897-1.562-1.59-.883.136-1.697.546-2.317 1.168-.62.623-1.014 1.424-1.12 2.282.592.209 1.131.537 1.582.963.066.059.119.13.157.208.037.079.059.164.062.25.004.087-.011.173-.042.255-.031.081-.078.156-.139.22-.061.063-.134.114-.215.15-.082.037-.17.057-.26.06-.089.004-.179-.01-.263-.04-.084-.03-.161-.075-.227-.134-.205-.23-.46-.415-.747-.542-.286-.126-.597-.19-.912-.19-.218.071-.419.185-.589.335-.171.15-.307.332-.401.535-.055.116-.143.214-.253.283-.111.068-.24.105-.371.105-.096 0-.19-.02-.277-.058-.164-.071-.293-.202-.358-.364-.064-.162-.06-.342.011-.501.181-.376.439-.711.76-.986.32-.275.696-.482 1.103-.61.123-1.174.647-2.274 1.491-3.127.843-.853 1.957-1.41 3.165-1.581.097-.564.331-1.098.683-1.557.113-.132.275-.216.452-.234.176-.018.353.03.493.136.139.106.231.26.255.43.025.169-.02.341-.125.48-.309.4-.451.897-.397 1.394.078.244.209.47.386.66.177.19.395.341.638.442.078.042.148.099.203.167.056.068.098.146.122.23.025.083.032.17.022.256-.011.086-.038.17-.082.245z"/>
    <g filter="url(#filter3_d)">
        <rect width="53.908" height="53.908" x="195" y="61.978" fill="#fff" rx="12" transform="rotate(-14.687 195 61.978)"/>
    </g>
    <path fill="#FFBFBF" stroke="#fff" stroke-width=".2" d="M215.237 85.393l-.042.08.077.05 8.089 5.27-.87 1.243-9.296-6.056 5.026-9.683 1.389.67-4.373 8.426zM241.645 78.845l.042-.08-.077-.05-8.089-5.27.866-1.242 9.3 6.055-5.03 9.684-1.385-.672 4.373-8.425zM229.784 96.104l-1.554.064-1.261-28.517 1.553-.064 1.262 28.517z"/>
    <defs>
        <filter id="filter0_d" width="91.7" height="91.7" x="88.277" y="30.311" color-interpolation-filters="sRGB" filterUnits="userSpaceOnUse">
            <feFlood flood-opacity="0" result="BackgroundImageFix"/>
            <feColorMatrix in="SourceAlpha" values="0 0 0 0 0 0 0 0 0 0 0 0 0 0 0 0 0 0 127 0"/>
            <feOffset dy="4"/>
            <feGaussianBlur stdDeviation="5"/>
            <feColorMatrix values="0 0 0 0 0 0 0 0 0 0 0 0 0 0 0 0 0 0 0.05 0"/>
            <feBlend in2="BackgroundImageFix" result="effect1_dropShadow"/>
            <feBlend in="SourceGraphic" in2="effect1_dropShadow" result="shape"/>
        </filter>
        <filter id="filter1_d" width="87.271" height="87.271" x="0" y=".311" color-interpolation-filters="sRGB" filterUnits="userSpaceOnUse">
            <feFlood flood-opacity="0" result="BackgroundImageFix"/>
            <feColorMatrix in="SourceAlpha" values="0 0 0 0 0 0 0 0 0 0 0 0 0 0 0 0 0 0 127 0"/>
            <feOffset dy="4"/>
            <feGaussianBlur stdDeviation="5"/>
            <feColorMatrix values="0 0 0 0 0 0 0 0 0 0 0 0 0 0 0 0 0 0 0.05 0"/>
            <feBlend in2="BackgroundImageFix" result="effect1_dropShadow"/>
            <feBlend in="SourceGraphic" in2="effect1_dropShadow" result="shape"/>
        </filter>
        <filter id="filter2_d" width="93.198" height="93.198" x="273.969" y=".311" color-interpolation-filters="sRGB" filterUnits="userSpaceOnUse">
            <feFlood flood-opacity="0" result="BackgroundImageFix"/>
            <feColorMatrix in="SourceAlpha" values="0 0 0 0 0 0 0 0 0 0 0 0 0 0 0 0 0 0 127 0"/>
            <feOffset dy="4"/>
            <feGaussianBlur stdDeviation="5"/>
            <feColorMatrix values="0 0 0 0 0 0 0 0 0 0 0 0 0 0 0 0 0 0 0.05 0"/>
            <feBlend in2="BackgroundImageFix" result="effect1_dropShadow"/>
            <feBlend in="SourceGraphic" in2="effect1_dropShadow" result="shape"/>
        </filter>
        <filter id="filter3_d" width="85.814" height="85.814" x="185" y="42.31" color-interpolation-filters="sRGB" filterUnits="userSpaceOnUse">
            <feFlood flood-opacity="0" result="BackgroundImageFix"/>
            <feColorMatrix in="SourceAlpha" values="0 0 0 0 0 0 0 0 0 0 0 0 0 0 0 0 0 0 127 0"/>
            <feOffset dy="4"/>
            <feGaussianBlur stdDeviation="5"/>
            <feColorMatrix values="0 0 0 0 0 0 0 0 0 0 0 0 0 0 0 0 0 0 0.05 0"/>
            <feBlend in2="BackgroundImageFix" result="effect1_dropShadow"/>
            <feBlend in="SourceGraphic" in2="effect1_dropShadow" result="shape"/>
        </filter>
    </defs>
</svg>
