<svg xmlns="http://www.w3.org/2000/svg" width="255" height="285" fill="none" viewBox="0 0 255 285">
    <g filter="url(#filter0_d)">
        <rect width="84" height="84" x="163.016" y="168.311" fill="#fff" rx="22" transform="rotate(14.488 163.016 168.311)"/>
    </g>
    <path fill="#FFBFBF" d="M218.99 205.187l-28.934-12.537-.068-.018-.135-.035-.136-.035c-.067-.017-.153.033-.153.033s-.068-.018-.085.05l-15.352 9.047c-.085.05-.085.05-.102.118l-.086.05c-.085.051-.12.186-.138.254l-7.793 30.159c-.017.068-.035.136-.002.289l-.017.068c-.018.068.032.153.1.17 0 0 .068.018.05.086.051.085.051.085.118.102 0 0 .068.018.118.103l.068.018 28.934 12.537.135.035c.068.018.136.035.289.002 0 0 .068.018.085-.05.068.018.085-.05.153-.033l15.352-9.047c.085-.05.085-.05.103-.118l.085-.05c.085-.05.12-.186.138-.254l7.775-30.091c-.048-.374-.181-.698-.502-.853zm-30.275-10.426l-3.012 11.657-9.695-4.168 12.707-7.489zm-13.768 8.517l10.406 4.496-3.923 15.181-13.646 8.042 7.163-27.719zm20.12 40.77l-26.835-11.706 13.816-8.142 16.311 7.106-3.292 12.742zm3.66-14.165l-15.922-6.934 3.765-14.571 15.922 6.934-3.765 14.571zm4.725-15.769l-16.446-7.142 3.292-12.741 26.971 11.74-13.817 8.143zm-6.802 29.403l3.012-11.657 9.696 4.168-12.708 7.489zm13.768-8.516l-10.406-4.497 3.888-15.046 13.646-8.041-7.128 27.584z"/>
    <g filter="url(#filter1_d)">
        <rect width="60.08" height="60.08" x="65.031" y="167.311" fill="#fff" rx="30.04" transform="rotate(14.488 65.031 167.311)"/>
    </g>
    <path fill="#FFBFBF" d="M93.052 191.055l-17.78 2.804c-1.633.258-2.754 1.796-2.496 3.431l2.804 17.78c.258 1.635 1.797 2.754 3.43 2.496l17.78-2.804c1.634-.257 2.755-1.796 2.497-3.431l-2.804-17.78c-.258-1.634-1.797-2.753-3.43-2.496zm5.05 20.463c.154.981-.518 1.904-1.498 2.059l-14.817 2.336-.748-4.741c-.258-1.635.863-3.173 2.496-3.431l3.556-.56c2.288-.361 3.856-2.516 3.495-4.803l-.429-2.718 2.945 2.142c.135.098.295.132.447.108.152-.024.295-.106.393-.239.194-.268.135-.643-.133-.838l-4.116-2.995c-.268-.195-.644-.136-.838.132l-2.996 4.117c-.194.267-.135.643.132.838.268.194.644.135.838-.132l2.143-2.947.428 2.718c.258 1.635-.862 3.174-2.496 3.431l-3.556.561c-2.287.361-3.855 2.515-3.494 4.803l.748 4.741-1.778.281c-.98.154-1.904-.518-2.059-1.498l-2.804-17.78c-.154-.98.518-1.904 1.498-2.059l17.78-2.804c.98-.154 1.904.518 2.059 1.498l2.804 17.78z"/>
    <path fill="#FFBFBF" d="M79.39 196.854c-1.634.258-2.755 1.796-2.497 3.431s1.797 2.754 3.43 2.496c1.634-.257 2.755-1.796 2.497-3.431-.258-1.634-1.797-2.753-3.43-2.496zm.747 4.742c-.98.154-1.904-.518-2.058-1.498-.155-.98.517-1.904 1.497-2.058.98-.155 1.904.517 2.059 1.497.154.981-.518 1.904-1.498 2.059zM93.745 208.131c-.267-.195-.643-.136-.838.132l-1.145 1.574-1.573-1.144c-.267-.195-.643-.136-.838.132-.194.267-.135.643.132.838l1.573 1.144-1.144 1.573c-.195.267-.136.643.132.838.133.098.294.132.446.108.152-.024.294-.106.392-.239l1.144-1.573 1.573 1.144c.134.097.295.131.447.107.152-.024.294-.106.392-.239.195-.268.136-.643-.132-.838l-1.574-1.145 1.144-1.573c.196-.269.137-.643-.13-.839z"/>
    <g filter="url(#filter2_d)">
        <rect width="120" height="120" fill="#fff" rx="22" transform="scale(-1 1) rotate(7.706 -111.31 -953.953)"/>
    </g>
    <path fill="#FFBFBF" d="M72.636 34.108l51.987 67.253-84.233 11.397 32.246-78.65zm.508 3.76l-14.25 34.764 37.227-5.037-22.977-29.727zm48.028 62.045L98.195 70.186l-14.25 34.764 37.227-5.037zM96.376 69.475l-37.228 5.037 22.977 29.727 14.25-34.764zM57.677 75.67l-14.25 34.764 37.227-5.038-22.977-29.726z"/>
    <defs>
        <filter id="filter0_d" width="122.344" height="122.344" x="132" y="162.311" color-interpolation-filters="sRGB" filterUnits="userSpaceOnUse">
            <feFlood flood-opacity="0" result="BackgroundImageFix"/>
            <feColorMatrix in="SourceAlpha" values="0 0 0 0 0 0 0 0 0 0 0 0 0 0 0 0 0 0 127 0"/>
            <feOffset dy="4"/>
            <feGaussianBlur stdDeviation="5"/>
            <feColorMatrix values="0 0 0 0 0 0 0 0 0 0 0 0 0 0 0 0 0 0 0.05 0"/>
            <feBlend in2="BackgroundImageFix" result="effect1_dropShadow"/>
            <feBlend in="SourceGraphic" in2="effect1_dropShadow" result="shape"/>
        </filter>
        <filter id="filter1_d" width="93.2" height="93.2" x="40" y="161.311" color-interpolation-filters="sRGB" filterUnits="userSpaceOnUse">
            <feFlood flood-opacity="0" result="BackgroundImageFix"/>
            <feColorMatrix in="SourceAlpha" values="0 0 0 0 0 0 0 0 0 0 0 0 0 0 0 0 0 0 127 0"/>
            <feOffset dy="4"/>
            <feGaussianBlur stdDeviation="5"/>
            <feColorMatrix values="0 0 0 0 0 0 0 0 0 0 0 0 0 0 0 0 0 0 0.05 0"/>
            <feBlend in2="BackgroundImageFix" result="effect1_dropShadow"/>
            <feBlend in="SourceGraphic" in2="effect1_dropShadow" result="shape"/>
        </filter>
        <filter id="filter2_d" width="155.007" height="155.007" x="0" y=".311" color-interpolation-filters="sRGB" filterUnits="userSpaceOnUse">
            <feFlood flood-opacity="0" result="BackgroundImageFix"/>
            <feColorMatrix in="SourceAlpha" values="0 0 0 0 0 0 0 0 0 0 0 0 0 0 0 0 0 0 127 0"/>
            <feOffset dy="4"/>
            <feGaussianBlur stdDeviation="5"/>
            <feColorMatrix values="0 0 0 0 0 0 0 0 0 0 0 0 0 0 0 0 0 0 0.05 0"/>
            <feBlend in2="BackgroundImageFix" result="effect1_dropShadow"/>
            <feBlend in="SourceGraphic" in2="effect1_dropShadow" result="shape"/>
        </filter>
    </defs>
</svg>
