<svg xmlns="http://www.w3.org/2000/svg" width="224" height="293" fill="none" viewBox="0 0 224 293">
    <g filter="url(#filter0_d)">
        <rect width="120" height="120" fill="#fff" rx="22" transform="scale(-1 1) rotate(-11.219 44.452 1099.443)"/>
    </g>
    <path fill="#FFBFBF" d="M185.3 47.6c.391.158.633.617.544 1.028l-14.046 70.816c-.092.463-.597.801-1.061.709l-70.815-14.046c-.464-.092-.802-.597-.71-1.061l14.046-70.815c.092-.463.597-.801 1.061-.71l70.981 14.08zm-1.402 1.562l-33.637-6.672-6.672 33.638 33.637 6.672 6.672-33.638zM148.49 42.14l-33.637-6.672-6.672 33.638 33.637 6.672 6.672-33.638zm16.774 13.419c.424.14.697.632.594 1.066l-1.054 5.311 5.477 1.087c.455.135.746.672.61 1.127-.135.455-.672.746-1.127.61l-5.311-1.053-1.054 5.31c-.086.47-.595.816-1.063.723-.467-.093-.806-.607-.707-1.073l1.054-5.311-5.312-1.054c-.469-.086-.815-.595-.722-1.063.093-.468.607-.807 1.074-.707l5.311 1.053 1.053-5.31c.082-.517.682-.881 1.177-.716zm-32.218-4.55c.657.198.803 1.257.224 1.625l-5.608 3.775 3.748 5.603c.26.397.134.996-.264 1.256-.397.26-.996.134-1.256-.264l-3.747-5.602-5.602 3.747c-.392.27-.993.157-1.262-.235s-.156-.993.236-1.262l5.602-3.747-3.742-5.63c-.418-.6.257-1.572.966-1.39.226.054.429.2.553.397l3.748 5.603 5.602-3.748c.228-.164.534-.214.802-.129zm43.829 33.562l-33.637-6.672-6.672 33.637 33.637 6.672 6.672-33.637zm-35.408-7.023l-33.637-6.672-6.672 33.637 33.637 6.672 6.672-33.637zm-12.739 9.434c.455.135.746.672.611 1.127-.136.455-.673.745-1.128.61l-12.392-2.458c-.469-.086-.815-.596-.723-1.063.093-.468.607-.807 1.074-.707l12.558 2.49zm32.584 11.983c.455.135.746.672.61 1.127-.135.455-.672.745-1.127.61l-12.393-2.458c-.469-.086-.815-.596-.722-1.063.093-.468.607-.807 1.074-.708l12.558 2.492zm-34.339-3.132c.455.136.745.673.61 1.128-.136.455-.673.745-1.127.61l-12.393-2.458c-.469-.086-.815-.596-.722-1.063.092-.468.607-.807 1.073-.708l12.559 2.491z"/>
    <g filter="url(#filter1_d)">
        <rect width="60.078" height="60.078" x="143.031" y="161.311" fill="#fff" rx="30.039" transform="rotate(14.488 143.031 161.311)"/>
    </g>
    <path fill="#FFBFBF" d="M179.739 195.047c.06-.833-.066-1.668-.369-2.446-1.689-4.786-6.162-4.73-7.746-4.545-.427-.72-1.534-1.871-4.37-2.57-2.896-.716-4.762.481-5.617 1.522-1.696-.666-3.539-.872-5.34-.596-3.008.429-4.097 2.999-4.422 4.059-2.094.512-5.311 2.361-4.876 6.448.262 2.466 1.181 4.301 2.731 5.462 1.248.879 2.743 1.337 4.269 1.308.224 0 .41-.011.581-.023.082.271.187.535.312.789 1.779 3.558 6.06 3.065 7.659 2.74.402.751 1.412 1.911 3.904 2.526.666.163 1.349.246 2.035.246.91.008 1.814-.156 2.663-.483 1.204.613 2.527.961 3.877 1.019.519.006 1.035-.077 1.526-.244.528-.191 1.007-.497 1.402-.896s.696-.88.882-1.41c.222-.558.372-1.141.448-1.737.78-.119 2.804-.784 3.551-4.486.661-3.26-1.544-5.653-3.1-6.683zm1.763 6.413c-.516 2.549-1.657 3.196-2.2 3.361-.084-.802-.353-1.573-.786-2.253-.583-.839-1.357-1.528-2.258-2.01-.901-.482-1.903-.744-2.925-.763-.181-.009-.358.054-.493.175-.134.122-.215.292-.224.473-.009.181.054.359.176.493.122.135.292.215.473.224.804.009 1.596.208 2.309.582.713.373 1.327.909 1.793 1.566.373.62.586 1.324.622 2.047.036.723-.107 1.444-.417 2.098-.115.348-.306.665-.56.928-.254.264-.564.467-.907.594-1.142.405-2.583.011-3.544-.361.092-.083.179-.172.26-.266.335-.4.544-.889.601-1.407.056-.518-.042-1.042-.283-1.504-.037-.081-.091-.155-.156-.216-.066-.06-.143-.108-.227-.139-.085-.031-.174-.045-.264-.042-.089.004-.177.025-.259.062-.081.038-.154.091-.215.157-.061.065-.109.143-.14.227-.031.084-.045.173-.042.263.004.089.025.177.062.259.132.229.191.492.167.755-.023.264-.127.513-.297.715-.726.877-2.789 1.462-4.984.922-2.83-.697-3.132-2.056-3.141-2.096-.014-.097-.048-.189-.101-.272-.053-.082-.123-.152-.205-.205-.082-.053-.174-.088-.271-.102-.097-.014-.196-.007-.289.02-.051.014-5.012 1.407-6.662-1.894-.317-.493-.449-1.083-.372-1.664.076-.581.357-1.116.792-1.51.999-.949 2.406-1.155 2.704-.988.088.05.185.08.286.087.1.008.201-.007.295-.044.094-.036.179-.092.249-.165.069-.073.122-.16.154-.256.149-.417.378-.8.676-1.128.297-.328.656-.594 1.056-.783.837-.311 1.869-.105 3.065.607.156.09.34.115.514.07s.323-.157.415-.312c.092-.154.119-.339.076-.513-.043-.175-.154-.325-.307-.419-1.57-.936-3.004-1.175-4.25-.709-.999.417-1.811 1.186-2.282 2.162-1.334-.024-2.623.478-3.59 1.397-.368.335-.664.74-.871 1.192-.207.452-.322.94-.336 1.437-1.365.104-2.724-.262-3.852-1.036-1.23-.919-1.964-2.435-2.183-4.501-.446-4.197 3.996-5.015 4.184-5.048.136-.023.263-.087.362-.184.1-.097.167-.221.194-.358.025-.122.639-3.028 3.393-3.422 1.713-.277 3.471-.033 5.044.7.079.044.167.073.257.083.09.011.182.004.269-.021.087-.025.169-.067.24-.124.071-.057.13-.127.174-.207.049-.089 1.237-2.176 4.454-1.384 3.217.793 3.613 2.122 3.619 2.122.016.09.051.177.102.254.051.077.117.142.194.193.077.051.163.085.254.102.091.016.184.014.274-.007.205-.045 5.07-1.089 6.718 3.581.387 1.097.614 2.536-.525 3.157-1.204.657-3.331.163-3.981-.673-1.088-1.398-.537-2.218-.524-2.238.058-.071.101-.152.127-.239.026-.087.035-.179.025-.269-.01-.091-.038-.178-.082-.258-.045-.079-.104-.149-.176-.205-.072-.057-.154-.098-.242-.122-.087-.024-.179-.03-.269-.018-.091.012-.177.042-.256.088-.078.047-.147.108-.201.181-.052.068-1.248 1.646.521 3.918 1.02 1.313 3.857 2.049 5.713 1.033.434-.239.802-.585 1.069-1.004.979.752 2.735 2.492 2.217 5.054zm-15.732-9.197c-.386.606-.988 1.042-1.683 1.221-.061.018-.125.027-.189.027-.165 0-.324-.059-.449-.167-.124-.108-.205-.258-.228-.421-.023-.163.014-.329.104-.468.09-.138.227-.239.386-.284.222-.043.431-.142.607-.286.175-.144.313-.329.399-.539.077-.307.082-.626.016-.935-.066-.309-.202-.599-.398-.847-.051-.074-.087-.157-.106-.245-.019-.087-.02-.178-.004-.266.016-.088.049-.172.098-.248.048-.075.111-.14.185-.191.073-.051.156-.087.244-.106.088-.019.178-.021.266-.005.089.016.173.049.248.098.076.049.141.111.192.185.456.635.699 1.398.694 2.18 1.16.365 3.318 1.578 3.445 5.59.006.18-.06.356-.184.488s-.295.21-.476.215h-.022c-.178.001-.348-.068-.476-.192-.127-.123-.201-.291-.207-.468-.102-3.214-1.682-4.095-2.462-4.336zm4.848 11.666c.024.087.031.179.02.269-.011.09-.04.177-.086.256-.045.079-.106.148-.178.203-.072.055-.155.095-.243.118-.088.023-.18.028-.27.015-.09-.014-.176-.045-.254-.092-.078-.047-.145-.109-.199-.182-.053-.074-.091-.157-.112-.246-.065-.386-.216-.753-.442-1.073-.225-.321-.52-.586-.862-.778-.774-.286-1.625-.281-2.396.015-.054.741-.319 1.452-.763 2.048-.103.147-.26.247-.436.279-.176.033-.358-.006-.507-.107-.148-.1-.251-.255-.286-.431-.034-.176.001-.359.1-.509.198-.233.343-.506.426-.801.082-.294.1-.603.052-.905-.104-.209-.248-.394-.424-.546-.176-.153-.38-.269-.6-.342-.086-.027-.166-.07-.235-.127-.069-.057-.126-.127-.168-.207-.042-.079-.068-.166-.076-.255-.009-.089.001-.18.027-.265.027-.086.07-.166.127-.235.057-.069.127-.126.207-.168.079-.042.166-.068.255-.076.09-.008.18.001.265.027.691.233 1.286.686 1.694 1.29 1.077-.378 2.254-.353 3.314.071.529.272.989.662 1.345 1.139.355.478.597 1.03.707 1.615h-.002zm-10.759-10.197c-.043.078-.102.148-.172.204-.07.056-.15.097-.236.122-.086.025-.177.033-.266.023-.089-.01-.175-.037-.254-.08-.7-.346-1.253-.93-1.561-1.647-.884.141-1.697.565-2.318 1.21-.62.644-1.013 1.473-1.12 2.361.592.217 1.131.557 1.583.997.065.061.119.134.156.216.038.081.059.169.062.259.004.089-.01.179-.041.263-.031.084-.079.161-.14.227-.06.066-.134.119-.215.157-.082.037-.17.059-.259.062-.09.004-.179-.011-.263-.042-.085-.031-.162-.078-.228-.139-.205-.238-.46-.43-.746-.56-.287-.131-.598-.198-.913-.197-.218.074-.419.192-.589.347-.171.155-.307.343-.401.554-.055.119-.142.221-.253.292-.111.071-.239.109-.371.109-.096 0-.19-.02-.277-.06-.164-.074-.293-.209-.357-.377-.065-.168-.061-.354.011-.519.18-.388.438-.736.759-1.02.32-.284.696-.5 1.103-.632.123-1.215.648-2.354 1.491-3.237.843-.882 1.957-1.458 3.165-1.636.097-.584.331-1.136.683-1.612.114-.136.276-.223.452-.242.176-.019.353.032.493.141.139.109.231.269.256.444.024.176-.021.354-.126.497-.309.414-.451.93-.397 1.444.078.253.21.486.387.683.176.197.394.353.637.458.079.043.148.102.204.172.056.071.097.151.122.238.024.086.031.176.021.266-.01.089-.038.175-.082.254z"/>
    <g filter="url(#filter2_d)">
        <rect width="84" height="84" x="10.725" y="197.332" fill="#fff" rx="22" transform="rotate(-14.687 10.725 197.332)"/>
    </g>
    <path fill="#FFBFBF" stroke="#fff" stroke-width=".2" d="M42.307 232.761l-.039.079.073.049 12.657 8.535-1.42 2.102L39 233.696l7.88-15.716 2.27 1.135-6.844 13.646zM83.358 222.138l.04-.079-.074-.049-12.657-8.535 1.414-2.1 14.584 9.828-7.888 15.718-2.263-1.136 6.844-13.647zM62.451 250.174l-1.971-46.119 2.533-.108 1.97 46.118-2.532.109z"/>
    <defs>
        <filter id="filter0_d" width="161.054" height="161.054" x="62" y=".311" color-interpolation-filters="sRGB" filterUnits="userSpaceOnUse">
            <feFlood flood-opacity="0" result="BackgroundImageFix"/>
            <feColorMatrix in="SourceAlpha" values="0 0 0 0 0 0 0 0 0 0 0 0 0 0 0 0 0 0 127 0"/>
            <feOffset dy="4"/>
            <feGaussianBlur stdDeviation="5"/>
            <feColorMatrix values="0 0 0 0 0 0 0 0 0 0 0 0 0 0 0 0 0 0 0.05 0"/>
            <feBlend in2="BackgroundImageFix" result="effect1_dropShadow"/>
            <feBlend in="SourceGraphic" in2="effect1_dropShadow" result="shape"/>
        </filter>
        <filter id="filter1_d" width="93.198" height="93.198" x="118" y="155.311" color-interpolation-filters="sRGB" filterUnits="userSpaceOnUse">
            <feFlood flood-opacity="0" result="BackgroundImageFix"/>
            <feColorMatrix in="SourceAlpha" values="0 0 0 0 0 0 0 0 0 0 0 0 0 0 0 0 0 0 127 0"/>
            <feOffset dy="4"/>
            <feGaussianBlur stdDeviation="5"/>
            <feColorMatrix values="0 0 0 0 0 0 0 0 0 0 0 0 0 0 0 0 0 0 0.05 0"/>
            <feBlend in2="BackgroundImageFix" result="effect1_dropShadow"/>
            <feBlend in="SourceGraphic" in2="effect1_dropShadow" result="shape"/>
        </filter>
        <filter id="filter2_d" width="122.553" height="122.553" x=".725" y="170.034" color-interpolation-filters="sRGB" filterUnits="userSpaceOnUse">
            <feFlood flood-opacity="0" result="BackgroundImageFix"/>
            <feColorMatrix in="SourceAlpha" values="0 0 0 0 0 0 0 0 0 0 0 0 0 0 0 0 0 0 127 0"/>
            <feOffset dy="4"/>
            <feGaussianBlur stdDeviation="5"/>
            <feColorMatrix values="0 0 0 0 0 0 0 0 0 0 0 0 0 0 0 0 0 0 0.05 0"/>
            <feBlend in2="BackgroundImageFix" result="effect1_dropShadow"/>
            <feBlend in="SourceGraphic" in2="effect1_dropShadow" result="shape"/>
        </filter>
    </defs>
</svg>
